HIERARCHY
ROOT root
{
	OFFSET 0.000000 0.000000 0.000000
	CHANNELS 6 Xposition Yposition Zposition Zrotation Yrotation Xrotation
	JOINT lhip
	{
		OFFSET 0.058581 -0.082280 -0.017664
		CHANNELS 3 Zrotation Yrotation Xrotation
		JOINT lknee
		{
			OFFSET 0.043451 -0.386469 0.008037
			CHANNELS 3 Zrotation Yrotation Xrotation
			JOINT lankle
			{
				OFFSET -0.014790 -0.426874 -0.037428
				CHANNELS 3 Zrotation Yrotation Xrotation
				JOINT ltoe
				{
					OFFSET 0.041054 -0.060286 0.122042
					CHANNELS 3 Zrotation Yrotation Xrotation
					End Site
					{
						OFFSET 0.000000 0.000000 0.000000
					}
				}
			}
		}
	}
	JOINT rhip
	{
		OFFSET -0.060310 -0.090513 -0.013543
		CHANNELS 3 Zrotation Yrotation Xrotation
		JOINT rknee
		{
			OFFSET -0.043257 -0.383688 -0.004843
			CHANNELS 3 Zrotation Yrotation Xrotation
			JOINT rankle
			{
				OFFSET 0.019056 -0.420046 -0.034562
				CHANNELS 3 Zrotation Yrotation Xrotation
				JOINT rtoe
				{
					OFFSET -0.034840 -0.062106 0.130323
					CHANNELS 3 Zrotation Yrotation Xrotation
					End Site
					{
						OFFSET 0.000000 0.000000 0.000000
					}
				}
			}
		}
	}
	JOINT lowerback
	{
		OFFSET 0.004439 0.124404 -0.038385
		CHANNELS 3 Zrotation Yrotation Xrotation
		JOINT upperback
		{
			OFFSET 0.004488 0.137956 0.026820
			CHANNELS 3 Zrotation Yrotation Xrotation
			JOINT chest
			{
				OFFSET -0.002265 0.056032 0.002855
				CHANNELS 3 Zrotation Yrotation Xrotation
				JOINT lowerneck
				{
					OFFSET -0.013390 0.211636 -0.033468
					CHANNELS 3 Zrotation Yrotation Xrotation
					JOINT upperneck
					{
						OFFSET 0.010113 0.088937 0.050410
						CHANNELS 3 Zrotation Yrotation Xrotation
						End Site
						{
							OFFSET 0.000000 0.000000 0.000000
						}
					}
				}
				JOINT lclavicle
				{
					OFFSET 0.071702 0.114000 -0.018898
					CHANNELS 3 Zrotation Yrotation Xrotation
					JOINT lshoulder
					{
						OFFSET 0.122921 0.045205 -0.019046
						CHANNELS 3 Zrotation Yrotation Xrotation
						JOINT lelbow
						{
							OFFSET 0.255332 -0.015649 -0.022946
							CHANNELS 3 Zrotation Yrotation Xrotation
							JOINT lwrist
							{
								OFFSET 0.265709 0.012698 -0.007375
								CHANNELS 3 Zrotation Yrotation Xrotation
								End Site
								{
									OFFSET 0.000000 0.000000 0.000000
								}
							}
						}
					}
				}
				JOINT rclavicle
				{
					OFFSET -0.082954 0.112472 -0.023707
					CHANNELS 3 Zrotation Yrotation Xrotation
					JOINT rshoulder
					{
						OFFSET -0.113228 0.046853 -0.008472
						CHANNELS 3 Zrotation Yrotation Xrotation
						JOINT relbow
						{
							OFFSET -0.260127 -0.014369 -0.031269
							CHANNELS 3 Zrotation Yrotation Xrotation
							JOINT rwrist
							{
								OFFSET -0.269108 0.006794 -0.006027
								CHANNELS 3 Zrotation Yrotation Xrotation
								End Site
								{
									OFFSET 0.000000 0.000000 0.000000
								}
							}
						}
					}
				}
			}
		}
	}
}
MOTION
Frames: 14
Frame Time: 0.033333
1.305694 0.263694 0.979925 -95.855517 -2.316095 93.090527 -0.457644 -8.393932 -20.896374 -3.493036 0.643709 13.727223 7.848542 15.018650 1.143944 0.000000 -0.000000 0.000000 -4.100026 -2.746286 7.161330 -4.332031 3.551066 54.380494 6.255813 -12.237828 14.953517 0.000000 -0.000000 0.000000 -5.734548 10.407970 -0.760939 -0.145148 4.062466 3.151018 -1.905396 5.696422 3.288994 1.220812 -13.394221 11.593419 6.468788 -8.785359 9.901751 -12.335456 15.906550 5.044539 -45.123170 7.087279 14.954320 -130.640244 -53.538718 167.530974 22.911492 -15.868348 0.682953 11.867771 -6.943337 -2.049382 65.543106 -6.458942 20.360190 128.392340 70.176681 155.646736 -23.436324 15.888171 -6.534879 
1.220673 0.261026 0.955146 -93.268839 -2.891619 91.533062 -2.858929 -8.394014 -18.953520 -5.169073 -0.118375 25.416287 12.196408 16.054026 -12.351617 0.000000 -0.000000 0.000000 -5.207918 -2.988090 2.970114 -5.073954 0.979755 67.323062 6.308517 -13.232820 11.566664 0.000000 -0.000000 0.000000 -6.191401 8.085720 3.004727 -0.021191 2.342185 0.305910 -2.057647 4.031050 4.356569 1.968679 -11.974651 9.572109 5.192585 -7.681814 11.020443 -15.725015 14.908840 3.500260 -45.376672 5.152031 16.120103 -128.394306 -55.887810 165.239706 22.854178 -16.348421 1.093196 14.206763 -8.925725 -3.345840 63.761799 -11.106452 20.875250 117.395908 73.236008 146.094346 -24.696475 15.255683 -3.724125 
1.140711 0.261677 0.933975 -91.426003 -3.193146 90.587063 -4.378936 -6.610539 -16.100154 -7.163149 -1.999342 33.295825 13.546622 18.143603 -20.241301 0.000000 -0.000000 0.000000 -5.820393 -2.754913 -4.383041 -3.838141 -0.129257 79.384960 5.629594 -14.565727 6.745042 0.000000 -0.000000 0.000000 -6.574695 5.865326 5.797092 -0.029599 1.267867 -0.412334 -2.292851 1.714130 5.349081 2.871919 -10.436060 6.469141 4.672367 -6.390108 11.382501 -20.484875 12.168188 1.529577 -45.423273 2.034128 16.700584 -124.662951 -59.777697 161.018538 23.240301 -16.103302 2.490092 17.460067 -10.407133 -4.215982 61.456994 -15.158545 20.089808 97.674162 76.870115 126.733332 -26.129929 13.878883 -0.323552 
1.043720 0.264899 0.925775 -90.989246 -2.284945 90.056465 -4.323292 -3.579400 -8.366105 -8.343372 -5.603576 34.214857 12.567593 19.316942 -24.646228 0.000000 -0.000000 0.000000 -4.727909 -1.033493 -17.380166 -3.141486 -1.756424 89.138716 5.094218 -15.789147 1.382311 0.000000 -0.000000 0.000000 -6.306021 2.259790 8.785094 -0.014025 0.945997 -0.890878 -2.339420 -0.619626 5.564984 3.343445 -8.479109 4.651668 4.632451 -4.243502 11.469749 -23.389470 9.085792 1.495168 -48.923077 -4.145754 16.662628 -122.866964 -64.526611 159.336746 23.257714 -15.192774 5.233165 19.413864 -11.935155 -3.656491 57.991547 -19.755110 18.112558 70.947157 77.801984 99.456596 -26.892383 12.696715 2.010507 
0.984433 0.266634 0.932025 -90.230403 -0.986951 90.349187 -3.431201 -1.895246 -3.288522 -8.046430 -8.810706 32.420837 10.229501 18.832161 -24.295553 0.000000 -0.000000 0.000000 -3.499234 -0.219089 -25.261024 -4.029503 -3.487909 89.721932 5.234413 -15.424014 -1.159322 0.000000 -0.000000 0.000000 -5.152647 -0.868588 9.568730 0.163665 0.330546 -1.169193 -2.087150 -2.067142 5.364259 2.098020 -7.461864 5.249431 4.365246 -1.994279 10.843666 -23.976861 8.145634 1.409050 -51.891594 -7.281730 16.725802 -125.800053 -65.972101 162.123544 23.785781 -15.325726 5.585957 18.611997 -13.087762 -3.107983 55.101067 -22.385092 16.902348 71.679371 76.443367 99.455553 -26.837989 13.184714 0.809499 
0.901446 0.268094 0.951493 -87.389113 0.810389 91.199388 -1.175043 -0.611049 3.146332 -7.249286 -13.272276 28.703144 6.125158 16.650983 -19.102922 0.000000 -0.000000 0.000000 -2.788846 -0.542916 -33.087143 -5.096926 -7.370129 83.539753 5.523764 -14.137056 -3.129910 0.000000 -0.000000 0.000000 -2.760800 -5.529082 8.874612 0.665749 -1.568001 -0.414850 -1.811942 -4.291146 4.756486 -0.528760 -6.017673 7.259599 3.660699 1.635556 9.102786 -23.822489 7.103697 1.289410 -54.985687 -10.695045 16.837371 -131.141881 -66.449016 167.487580 23.982570 -14.973812 6.003989 16.272288 -14.789442 -2.128498 51.329641 -25.084289 15.360447 80.607861 74.394013 108.443568 -26.545785 13.819814 -0.572219 
0.815866 0.270968 0.978614 -85.162010 2.133807 92.967432 2.052512 0.823205 7.575140 -6.367636 -15.338807 24.323855 1.110259 13.700086 -7.752561 0.000000 -0.000000 0.000000 -2.822495 -0.229681 -38.314540 -5.229287 -12.330698 70.759068 5.029961 -13.113674 -2.450477 0.000000 -0.000000 0.000000 -0.612487 -9.532058 6.474743 1.268125 -3.345037 0.763057 -1.555911 -6.149857 3.674246 -3.050378 -4.016717 9.677867 2.735602 4.853362 7.400210 -22.620179 6.865486 1.785626 -56.049719 -13.087100 16.923743 -135.764868 -65.672725 172.201706 23.836566 -15.360341 6.493216 13.654396 -16.654109 -0.559533 48.677526 -26.438103 13.986744 87.720225 72.647440 115.448444 -26.454587 14.301690 -2.844497 
0.728169 0.273919 1.004636 -84.331887 3.095833 95.373067 5.085518 2.715882 10.241915 -4.954791 -14.730135 19.863854 -3.627090 11.242504 8.493040 0.000000 -0.000000 0.000000 -2.524962 0.791391 -40.955198 -3.866068 -16.264106 52.748102 4.306705 -12.561916 1.407034 0.000000 -0.000000 0.000000 1.459603 -12.431266 3.024523 1.757995 -4.553410 2.113829 -1.015315 -7.427782 2.130868 -5.932387 -2.323779 12.689024 2.052936 8.437083 4.671443 -20.488594 7.204768 3.045696 -56.134456 -14.177974 16.685378 -138.350101 -63.917451 175.501132 23.378302 -15.937001 6.710170 10.386758 -18.225868 2.171330 47.597436 -26.609672 12.435677 94.064013 71.457698 121.622223 -26.900891 13.859065 -5.317667 
0.638410 0.275918 1.021482 -84.198246 3.464483 97.522067 6.476884 3.866302 11.810490 -3.683225 -13.419565 18.251806 -5.719313 10.099243 21.716467 0.000000 -0.000000 0.000000 -1.759641 1.639837 -40.725573 -0.416208 -15.965819 32.288627 3.869623 -11.919389 7.357780 0.000000 -0.000000 0.000000 3.282459 -13.902297 -0.842605 1.908969 -5.569269 3.769318 -0.547085 -8.158604 1.112885 -9.037718 -1.789255 15.376382 1.934865 12.029082 1.343264 -17.728062 7.640395 4.531301 -56.093831 -14.637049 16.271675 -138.914209 -61.692967 176.568573 23.134165 -15.958931 5.762325 6.676698 -19.148675 5.192625 48.484179 -26.352884 10.824894 100.370271 71.455050 127.627798 -25.867518 13.324019 -7.272931 
0.523562 0.279115 1.025870 -84.970565 3.027630 97.866614 5.109325 2.560040 13.173636 -2.665049 -11.899896 23.964487 -4.788752 11.908579 23.191755 0.000000 -0.000000 0.000000 -0.956020 2.405037 -36.668168 2.088836 -13.184163 13.797145 6.013080 -12.050992 12.211737 0.000000 -0.000000 0.000000 4.213626 -13.588364 -3.692276 1.443931 -6.564028 5.449163 -0.804024 -7.972985 1.308305 -10.634441 -1.832933 17.079389 1.855084 13.811190 -1.317098 -15.528826 8.466246 5.297963 -55.258864 -13.965583 15.924892 -137.841904 -59.577202 175.404904 23.473850 -16.749135 4.016638 4.505126 -19.762547 6.505023 49.777806 -26.468087 10.030910 105.869073 72.328211 133.255156 -24.725089 13.549151 -8.099768 
0.431248 0.283839 1.016919 -86.913952 2.498924 96.524558 3.019249 0.608855 13.343317 -4.257773 -10.581248 34.903222 -2.881552 13.406790 16.555660 0.000000 -0.000000 0.000000 0.321534 2.221450 -33.693946 2.308713 -12.327561 12.588105 8.751658 -12.829559 13.018290 0.000000 -0.000000 0.000000 4.045777 -11.687430 -4.232548 1.168203 -6.143841 5.855978 -1.577273 -7.376361 2.434398 -9.731215 -2.185731 16.758029 1.210382 12.954908 -0.019177 -15.688512 9.927654 4.997216 -54.584585 -11.762470 15.994187 -135.346512 -59.515866 172.457050 23.385708 -17.555818 4.104614 5.578602 -20.236475 4.961092 49.448484 -26.446430 10.746873 107.185674 73.272839 133.848166 -24.289695 13.446514 -8.211577 
0.339426 0.288915 0.998634 -89.614017 2.591446 94.399770 2.768402 0.460674 12.176415 -6.012125 -6.538709 48.151372 -2.551091 14.338150 12.866943 0.000000 -0.000000 0.000000 1.740282 4.040396 -30.168826 2.138748 -10.543031 19.486236 5.849612 -12.332042 8.896989 0.000000 -0.000000 0.000000 3.929181 -9.963010 -3.188432 1.511904 -4.403149 6.017066 -2.102395 -6.321916 2.756727 -8.399733 -2.494415 16.051823 0.083297 11.376922 2.605821 -17.017674 11.864242 4.754790 -54.141828 -7.752394 15.548571 -131.700019 -60.791650 169.428723 21.927080 -16.952049 6.403429 8.091849 -19.634259 3.444599 48.453359 -24.670611 10.987020 105.618897 73.867095 131.932629 -24.521216 13.015272 -8.520633 
0.250931 0.294375 0.972338 -92.777408 2.778124 92.220056 3.682691 1.889173 9.147277 -5.741288 -1.928944 61.966335 -2.792931 15.199471 9.704696 0.000000 -0.000000 0.000000 4.209934 5.827233 -27.170224 1.820011 -6.158040 31.241343 -0.262866 -10.566535 -4.327203 0.000000 -0.000000 0.000000 3.361828 -8.134859 -0.618090 2.247680 -2.159744 5.298936 -2.312508 -4.742762 2.966758 -5.919369 -1.687021 13.358572 -1.313035 8.263255 6.495673 -18.902050 13.919002 3.730432 -53.070056 -2.821487 14.684041 -126.544121 -62.973129 165.003429 20.564491 -15.706482 7.829144 12.476098 -17.665644 1.591916 46.801169 -21.430595 11.162273 103.738130 74.647047 130.711692 -25.223559 12.870947 -8.158315 
0.168722 0.299257 0.947344 -95.444886 2.491258 89.906069 4.115900 1.817247 4.101960 -5.045343 1.954349 75.015869 -2.456889 15.985999 5.089273 0.000000 -0.000000 0.000000 6.078802 5.936380 -22.465888 1.020270 -3.456978 39.622039 -3.149735 -11.183626 -17.046253 0.000000 -0.000000 0.000000 2.493944 -5.486358 3.297088 2.607870 -0.540942 4.230747 -2.286088 -2.970834 3.430136 -3.639666 -1.257493 9.543262 -2.446952 5.003269 9.343239 -21.137788 15.204912 2.244740 -51.474498 1.595957 13.455650 -118.605783 -66.118791 156.192856 19.570408 -13.856851 8.686158 17.313990 -14.457990 -1.446030 46.441991 -16.835167 12.532832 100.348847 76.299314 127.601700 -27.188670 11.963536 -6.198789 
